<svg xmlns="http://www.w3.org/2000/svg" width="1400" height="760" viewBox="0 0 1400 760" role="img" aria-label="BiNet USA Works Workflow workflow diagram">
  <rect width="1400" height="760" fill="#FFFDF5"/>
  <rect x="48" y="48" width="1304" height="664" rx="28" fill="#FFF2FA" stroke="#E8C8DF" stroke-width="3"/>
  <text x="92" y="126" font-family="Georgia, serif" font-size="52" fill="#16091F">BiNet USA Works Workflow</text>
  <g font-family="Arial, sans-serif" font-size="26" font-weight="700">
    <rect x="105" y="220" width="230" height="120" rx="16" fill="#D60270"/><text x="140" y="290" fill="white">Public audience</text>
    <rect x="425" y="220" width="230" height="120" rx="16" fill="#21B1FF"/><text x="470" y="290" fill="white">Project surface</text>
    <rect x="745" y="220" width="230" height="120" rx="16" fill="#0038A8"/><text x="775" y="290" fill="white">Review layer</text>
    <rect x="1065" y="220" width="230" height="120" rx="16" fill="#16091F"/><text x="1100" y="290" fill="white">Private engine</text>
    <rect x="425" y="470" width="230" height="120" rx="16" fill="#FF218C"/><text x="455" y="540" fill="white">Receipts</text>
    <rect x="745" y="470" width="230" height="120" rx="16" fill="#21B1FF"/><text x="775" y="540" fill="#16091F">WordPress</text>
  </g>
  <g stroke="#16091F" stroke-width="5" fill="none" marker-end="url(#arrow)">
    <defs><marker id="arrow" markerWidth="10" markerHeight="10" refX="9" refY="3" orient="auto"><path d="M0,0 L0,6 L9,3 z" fill="#16091F"/></marker></defs>
    <path d="M335 280 H425"/><path d="M655 280 H745"/><path d="M975 280 H1065"/><path d="M540 340 V470"/><path d="M860 340 V470"/>
  </g>
  <text x="105" y="665" font-family="Arial, sans-serif" font-size="24" fill="#5D4D66">Public surface only. Source, secrets, raw backups, private workflows, and operational systems stay protected.</text>
</svg>
